<svg xmlns="http://www.w3.org/2000/svg" version="1.1" xmlns:xlink="http://www.w3.org/1999/xlink" xmlns:svgjs="http://svgjs.dev/svgjs" width="2000" height="1247" viewBox="0 0 2000 1247"><g transform="matrix(1,0,0,1,-1.2121212121212466,0.504858299595071)"><svg viewBox="0 0 396 247" data-background-color="#ffffff" preserveAspectRatio="xMidYMid meet" height="1247" width="2000" xmlns="http://www.w3.org/2000/svg" xmlns:xlink="http://www.w3.org/1999/xlink"><g id="tight-bounds" transform="matrix(1,0,0,1,0.2400000000000091,-0.09999999999999432)"><svg viewBox="0 0 395.52 247.2" height="247.2" width="395.52"><g><svg></svg></g><g><svg viewBox="0 0 395.52 247.2" height="247.2" width="395.52"><mask id="87cc7d27-27e3-463d-9acd-75b521646f20"><rect width="395.52" height="247.2" fill="white"></rect><g transform="matrix(1,0,0,1,12.644382685319187,37.08)" id="clone"><svg viewBox="0 0 370.2312346293616 173.04" height="173.04" width="370.2312346293616"><g><svg viewBox="0 0 370.2312346293616 173.04" height="173.04" width="370.2312346293616"><g><svg viewBox="0 0 774.5739881544448 362.0231638327998" height="173.04" width="370.2312346293616"><g transform="matrix(1,0,0,1,0,115.52258701176898)"><svg viewBox="0 0 395.52 130.97798980926186" height="130.97798980926186" width="395.52"><g id="SvgjsG2486"><svg viewBox="0 0 395.52 130.97798980926186" height="130.97798980926186" width="395.52" id="SvgjsSvg2485"><g><svg viewBox="0 0 395.52 130.97798980926186" height="130.97798980926186" width="395.52"><g transform="matrix(1,0,0,1,0,0)"><svg width="395.52" viewBox="-2.65625 -43.45 139.59625 46.900000000000006" height="130.97798980926186" data-palette-color="url(#e09fcc94-fc07-49f6-a9f8-1d6c97778632)"><path d="M28.15-1.2L17.15-34.8 6.2-1.2 6.2-1.25Q5.9-0.5 5.38-0.03 4.85 0.45 4.1 0.45L4.1 0.45Q3.7 0.45 3.33 0.38 2.95 0.3 2.55 0.2L2.55 0.2 2.6 0.2Q-0.25-0.7 0.5-3L0.5-3 11.9-37.65Q12.15-38.45 12.78-39 13.4-39.55 14.25-39.65L14.25-39.65Q15.1-39.8 15.9-39.88 16.7-39.95 17.15-39.95L17.15-39.95Q17.6-39.95 18.4-39.88 19.2-39.8 20.05-39.7L20.05-39.7Q20.75-39.6 21.43-38.95 22.1-38.3 22.45-37.65L22.45-37.65Q25.25-29.05 28.13-20.33 31-11.6 33.8-3L33.8-3Q34.5-0.7 31.7 0.2L31.7 0.2Q31.3 0.3 30.98 0.38 30.65 0.45 30.25 0.45L30.25 0.45Q29.55 0.45 28.98-0.03 28.4-0.5 28.15-1.25L28.15-1.25 28.15-1.2ZM20.9-12L20.9-12Q20.9-10.4 19.78-9.28 18.65-8.15 17.05-8.15L17.05-8.15Q15.45-8.15 14.35-9.28 13.25-10.4 13.25-12L13.25-12Q13.25-13.6 14.35-14.73 15.45-15.85 17.05-15.85L17.05-15.85Q18.65-15.85 19.78-14.73 20.9-13.6 20.9-12ZM48.6 0.3L48.05 0.3Q47.95 0.3 47.8 0.28 47.65 0.25 47.5 0.25L47.5 0.25Q47.25 0.25 46.8 0.25L46.8 0.25Q46.35 0.25 45.95 0.2L45.95 0.2Q45.1 0.15 44.5-0.28 43.9-0.7 43.65-1.3L43.65-1.3 35.25-27.1Q35-28.15 35.52-28.98 36.05-29.8 37.2-30.2L37.2-30.2Q37.55-30.3 37.9-30.35 38.25-30.4 38.5-30.4L38.5-30.4Q40.05-30.4 40.65-28.7L40.65-28.7 44.3-17.35 48.15-5.45 55.65-28.7Q56.2-30.45 57.65-30.45L57.65-30.45Q58.2-30.45 59.05-30.2L59.05-30.2Q60.35-29.85 60.85-29.03 61.35-28.2 61-27.1L61-27.1 52.65-1.3Q52.2 0.1 50.3 0.2L50.3 0.2Q50.2 0.2 50.07 0.23 49.95 0.25 49.85 0.25L49.85 0.25Q49.45 0.3 49.15 0.3L49.15 0.3Q48.85 0.3 48.6 0.3L48.6 0.3ZM71.1-27.9L71.1-2.1Q71.1 0.3 68.35 0.3L68.35 0.3Q65.55 0.3 65.55-2.1L65.55-2.1 65.55-27.9Q65.55-30.3 68.35-30.3L68.35-30.3Q71.1-30.3 71.1-27.9L71.1-27.9ZM72.15-36.6L72.15-36.6Q72.15-35 71.05-33.9 69.95-32.8 68.35-32.8L68.35-32.8Q66.75-32.8 65.62-33.9 64.5-35 64.5-36.6L64.5-36.6Q64.5-38.25 65.62-39.35 66.75-40.45 68.35-40.45L68.35-40.45Q69.95-40.45 71.05-39.35 72.15-38.25 72.15-36.6ZM83.44-22.75L83.44-2.1Q83.44 0.3 80.69 0.3L80.69 0.3Q77.84 0.3 77.84-2.1L77.84-2.1 77.84-22.8Q77.84-26.9 80.29-28.5L80.29-28.5Q82.74-30.1 85.94-30.1L85.94-30.1 91.64-30.1Q93.49-30.1 93.49-27.75L93.49-27.75Q93.59-25.4 91.64-25.4L91.64-25.4 86.34-25.4Q84.54-25.4 83.99-24.7 83.44-24 83.44-22.75L83.44-22.75ZM111.84 0L105.29 0Q103.74 0 102.34-0.43 100.94-0.85 99.64-1.65L99.64-1.65 99.64-1.6Q97.19-3.15 97.19-7.3L97.19-7.3 97.19-9.75Q97.19-11.8 97.92-13.33 98.64-14.85 99.94-15.75L99.94-15.75 99.89-15.75Q101.14-16.6 102.54-17.03 103.94-17.45 105.24-17.45L105.24-17.45 116.29-17.45 116.29-22.1Q116.29-23.35 115.52-24.38 114.74-25.4 112.89-25.4L112.89-25.4 107.04-25.4Q105.14-25.4 104.42-24.48 103.69-23.55 103.69-22.3L103.69-22.3 103.69-21.9Q103.69-19.3 100.89-19.3L100.89-19.3Q98.09-19.3 98.09-21.9L98.09-21.9 98.09-22.35Q98.09-24.4 98.82-25.8 99.54-27.2 100.79-28.15L100.79-28.15 100.74-28.15Q102.04-29 103.47-29.55 104.89-30.1 106.19-30.1L106.19-30.1 113.79-30.1Q115.04-30.1 116.47-29.55 117.89-29 119.14-28.15L119.14-28.15 119.09-28.15Q120.39-27.2 121.09-25.68 121.79-24.15 121.79-22.15L121.79-22.15 121.79-2.1Q121.79 0.3 119.04 0.3L119.04 0.3Q118.49 0.3 118.02 0.25 117.54 0.2 117.17-0.03 116.79-0.25 116.57-0.68 116.34-1.1 116.34-1.8L116.34-1.8 116.29-12.75 106.19-12.75Q105.09-12.75 104.49-12.5 103.89-12.25 103.54-11.7L103.54-11.7Q103.14-10.85 102.97-10.38 102.79-9.9 102.79-9.3L102.79-9.3 102.79-7.35Q102.79-6.05 103.57-5.38 104.34-4.7 106.24-4.7L106.24-4.7 111.84-4.7Q113.69-4.7 113.69-2.35L113.69-2.35Q113.69-1.35 113.24-0.68 112.79 0 111.84 0L111.84 0ZM133.94-37.8L133.94-1.95Q133.94 0.4 131.19 0.4L131.19 0.4Q128.39 0.4 128.39-1.95L128.39-1.95 128.39-37.8Q128.39-40.15 131.19-40.15L131.19-40.15Q133.94-40.15 133.94-37.8L133.94-37.8Z" opacity="1" transform="matrix(1,0,0,1,0,0)" fill="black" class="wordmark-text-0" id="SvgjsPath2484" stroke-width="5" stroke="black" stroke-linejoin="round"></path></svg></g></svg></g></svg></g></svg></g><g transform="matrix(1,0,0,1,412.55082432164494,0)"><svg viewBox="0 0 362.0231638327998 362.0231638327998" height="362.0231638327998" width="362.0231638327998"><g><svg xmlns="http://www.w3.org/2000/svg" xmlns:xlink="http://www.w3.org/1999/xlink" version="1.1" x="0" y="0" viewBox="0.5 0.5 47 47" enable-background="new 0 0 48 48" xml:space="preserve" height="362.0231638327998" width="362.0231638327998" class="icon-icon-0" data-fill-palette-color="accent" id="SvgjsSvg2483"><path fill="black" d="M24 47.5C37 47.5 47.5 37 47.5 24S37 0.5 24 0.5 0.5 11 0.5 24 11 47.5 24 47.5zM24 6V42c0 0.3-0.2 0.5-0.5 0.5-10-0.3-18-8.5-18-18.6s8-18.3 18-18.6C23.8 5.4 24 5.7 24 6z" stroke-width="5" stroke="black" stroke-linejoin="round"></path></svg></g></svg></g></svg></g></svg></g></svg></g></mask><g mask="url(#87cc7d27-27e3-463d-9acd-75b521646f20)"><g><path transform="translate(92.87209,244.44653) scale(6.11881,6.11881)" d="M28.15-1.2l-11-33.6-10.95 33.6v-0.05c-0.2 0.5-0.473 0.907-0.82 1.22-0.353 0.32-0.78 0.48-1.28 0.48v0c-0.267 0-0.523-0.023-0.77-0.07-0.253-0.053-0.513-0.113-0.78-0.18v0h0.05c-1.9-0.6-2.6-1.667-2.1-3.2v0l11.4-34.65c0.167-0.533 0.46-0.983 0.88-1.35 0.413-0.367 0.903-0.583 1.47-0.65v0c0.567-0.1 1.117-0.177 1.65-0.23 0.533-0.047 0.95-0.07 1.25-0.07v0c0.3 0 0.717 0.023 1.25 0.07 0.533 0.053 1.083 0.113 1.65 0.18v0c0.467 0.067 0.927 0.317 1.38 0.75 0.447 0.433 0.787 0.867 1.02 1.3v0c1.867 5.733 3.76 11.507 5.68 17.32 1.913 5.82 3.803 11.597 5.67 17.33v0c0.467 1.533-0.233 2.6-2.1 3.2v0c-0.267 0.067-0.507 0.127-0.72 0.18-0.22 0.047-0.463 0.07-0.73 0.07v0c-0.467 0-0.89-0.16-1.27-0.48-0.387-0.313-0.663-0.72-0.83-1.22v0zM20.9-12v0c0 1.067-0.373 1.973-1.12 2.72-0.753 0.753-1.663 1.13-2.73 1.13v0c-1.067 0-1.967-0.377-2.7-1.13-0.733-0.747-1.1-1.653-1.1-2.72v0c0-1.067 0.367-1.977 1.1-2.73 0.733-0.747 1.633-1.12 2.7-1.12v0c1.067 0 1.977 0.373 2.73 1.12 0.747 0.753 1.12 1.663 1.12 2.73z" fill="#ee3e38" fill-rule="nonzero" stroke="none" stroke-width="1" stroke-linecap="butt" stroke-linejoin="miter" stroke-miterlimit="10" stroke-dasharray="" stroke-dashoffset="0" font-family="none" font-weight="none" font-size="none" text-anchor="none" style="mix-blend-mode: normal" data-fill-palette-color="tertiary"></path></g></g><g transform="matrix(1,0,0,1,12.644382685319187,37.08)"><svg viewBox="0 0 370.2312346293616 173.04" height="173.04" width="370.2312346293616"><g><svg viewBox="0 0 370.2312346293616 173.04" height="173.04" width="370.2312346293616"><g><svg viewBox="0 0 774.5739881544448 362.0231638327998" height="173.04" width="370.2312346293616"><g transform="matrix(1,0,0,1,0,115.52258701176898)"><svg viewBox="0 0 395.52 130.97798980926186" height="130.97798980926186" width="395.52"><g id="textblocktransform"><svg viewBox="0 0 395.52 130.97798980926186" height="130.97798980926186" width="395.52" id="textblock"><g><svg viewBox="0 0 395.52 130.97798980926186" height="130.97798980926186" width="395.52"><g transform="matrix(1,0,0,1,0,0)"><svg width="395.52" viewBox="-2.65625 -43.45 139.59625 46.900000000000006" height="130.97798980926186" data-palette-color="url(#e09fcc94-fc07-49f6-a9f8-1d6c97778632)"></svg></g></svg></g></svg></g></svg></g><g transform="matrix(1,0,0,1,412.55082432164494,0)"><svg viewBox="0 0 362.0231638327998 362.0231638327998" height="362.0231638327998" width="362.0231638327998"><g><svg xmlns="http://www.w3.org/2000/svg" xmlns:xlink="http://www.w3.org/1999/xlink" version="1.1" x="0" y="0" viewBox="0.5 0.5 47 47" enable-background="new 0 0 48 48" xml:space="preserve" height="362.0231638327998" width="362.0231638327998" class="icon-icon-0" data-fill-palette-color="accent" id="icon-0"><path fill="#001f3f" d="M24 47.5C37 47.5 47.5 37 47.5 24S37 0.5 24 0.5 0.5 11 0.5 24 11 47.5 24 47.5zM24 6V42c0 0.3-0.2 0.5-0.5 0.5-10-0.3-18-8.5-18-18.6s8-18.3 18-18.6C23.8 5.4 24 5.7 24 6z" data-fill-palette-color="accent"></path></svg></g></svg></g></svg></g></svg></g></svg></g></svg></g><defs></defs><mask id="671da09d-022a-4a5d-9b5e-fba7e24ca07e"><g id="SvgjsG2498"><svg viewBox="0 0 395.52 247.2" height="247.2" width="395.52"><g><svg></svg></g><g><svg viewBox="0 0 395.52 247.2" height="247.2" width="395.52"><mask id="SvgjsMask2497"><g transform="matrix(1,0,0,1,12.644382685319187,37.08)" id="SvgjsG2496"><svg viewBox="0 0 370.2312346293616 173.04" height="173.04" width="370.2312346293616"><g><svg viewBox="0 0 370.2312346293616 173.04" height="173.04" width="370.2312346293616"><g><svg viewBox="0 0 774.5739881544448 362.0231638327998" height="173.04" width="370.2312346293616"><g transform="matrix(1,0,0,1,0,115.52258701176898)"><svg viewBox="0 0 395.52 130.97798980926186" height="130.97798980926186" width="395.52"><g id="SvgjsG2495"><svg viewBox="0 0 395.52 130.97798980926186" height="130.97798980926186" width="395.52" id="SvgjsSvg2494"><g><svg viewBox="0 0 395.52 130.97798980926186" height="130.97798980926186" width="395.52"><g transform="matrix(1,0,0,1,0,0)"><svg width="395.52" viewBox="-2.65625 -43.45 139.59625 46.900000000000006" height="130.97798980926186" data-palette-color="url(#e09fcc94-fc07-49f6-a9f8-1d6c97778632)"></svg></g></svg></g></svg></g></svg></g><g transform="matrix(1,0,0,1,412.55082432164494,0)"><svg viewBox="0 0 362.0231638327998 362.0231638327998" height="362.0231638327998" width="362.0231638327998"><g><svg xmlns="http://www.w3.org/2000/svg" xmlns:xlink="http://www.w3.org/1999/xlink" version="1.1" x="0" y="0" viewBox="0.5 0.5 47 47" enable-background="new 0 0 48 48" xml:space="preserve" height="362.0231638327998" width="362.0231638327998" class="icon-icon-0" data-fill-palette-color="accent" id="SvgjsSvg2492"></svg></g></svg></g></svg></g></svg></g></svg></g></mask><g mask="url(#87cc7d27-27e3-463d-9acd-75b521646f20)"><g></g></g><g transform="matrix(1,0,0,1,12.644382685319187,37.08)"><svg viewBox="0 0 370.2312346293616 173.04" height="173.04" width="370.2312346293616"><g><svg viewBox="0 0 370.2312346293616 173.04" height="173.04" width="370.2312346293616"><g><svg viewBox="0 0 774.5739881544448 362.0231638327998" height="173.04" width="370.2312346293616"><g transform="matrix(1,0,0,1,0,115.52258701176898)"><svg viewBox="0 0 395.52 130.97798980926186" height="130.97798980926186" width="395.52"><g id="SvgjsG2491"><svg viewBox="0 0 395.52 130.97798980926186" height="130.97798980926186" width="395.52" id="SvgjsSvg2490"><g><svg viewBox="0 0 395.52 130.97798980926186" height="130.97798980926186" width="395.52"><g transform="matrix(1,0,0,1,0,0)"><svg width="395.52" viewBox="-2.65625 -43.45 139.59625 46.900000000000006" height="130.97798980926186" data-palette-color="url(#e09fcc94-fc07-49f6-a9f8-1d6c97778632)"><path d="M28.15-1.2L17.15-34.8 6.2-1.2 6.2-1.25Q5.9-0.5 5.38-0.03 4.85 0.45 4.1 0.45L4.1 0.45Q3.7 0.45 3.33 0.38 2.95 0.3 2.55 0.2L2.55 0.2 2.6 0.2Q-0.25-0.7 0.5-3L0.5-3 11.9-37.65Q12.15-38.45 12.78-39 13.4-39.55 14.25-39.65L14.25-39.65Q15.1-39.8 15.9-39.88 16.7-39.95 17.15-39.95L17.15-39.95Q17.6-39.95 18.4-39.88 19.2-39.8 20.05-39.7L20.05-39.7Q20.75-39.6 21.43-38.95 22.1-38.3 22.45-37.65L22.45-37.65Q25.25-29.05 28.13-20.33 31-11.6 33.8-3L33.8-3Q34.5-0.7 31.7 0.2L31.7 0.2Q31.3 0.3 30.98 0.38 30.65 0.45 30.25 0.45L30.25 0.45Q29.55 0.45 28.98-0.03 28.4-0.5 28.15-1.25L28.15-1.25 28.15-1.2ZM20.9-12L20.9-12Q20.9-10.4 19.78-9.28 18.65-8.15 17.05-8.15L17.05-8.15Q15.45-8.15 14.35-9.28 13.25-10.4 13.25-12L13.25-12Q13.25-13.6 14.35-14.73 15.45-15.85 17.05-15.85L17.05-15.85Q18.65-15.85 19.78-14.73 20.9-13.6 20.9-12ZM48.6 0.3L48.05 0.3Q47.95 0.3 47.8 0.28 47.65 0.25 47.5 0.25L47.5 0.25Q47.25 0.25 46.8 0.25L46.8 0.25Q46.35 0.25 45.95 0.2L45.95 0.2Q45.1 0.15 44.5-0.28 43.9-0.7 43.65-1.3L43.65-1.3 35.25-27.1Q35-28.15 35.52-28.98 36.05-29.8 37.2-30.2L37.2-30.2Q37.55-30.3 37.9-30.35 38.25-30.4 38.5-30.4L38.5-30.4Q40.05-30.4 40.65-28.7L40.65-28.7 44.3-17.35 48.15-5.45 55.65-28.7Q56.2-30.45 57.65-30.45L57.65-30.45Q58.2-30.45 59.05-30.2L59.05-30.2Q60.35-29.85 60.85-29.03 61.35-28.2 61-27.1L61-27.1 52.65-1.3Q52.2 0.1 50.3 0.2L50.3 0.2Q50.2 0.2 50.07 0.23 49.95 0.25 49.85 0.25L49.85 0.25Q49.45 0.3 49.15 0.3L49.15 0.3Q48.85 0.3 48.6 0.3L48.6 0.3ZM71.1-27.9L71.1-2.1Q71.1 0.3 68.35 0.3L68.35 0.3Q65.55 0.3 65.55-2.1L65.55-2.1 65.55-27.9Q65.55-30.3 68.35-30.3L68.35-30.3Q71.1-30.3 71.1-27.9L71.1-27.9ZM72.15-36.6L72.15-36.6Q72.15-35 71.05-33.9 69.95-32.8 68.35-32.8L68.35-32.8Q66.75-32.8 65.62-33.9 64.5-35 64.5-36.6L64.5-36.6Q64.5-38.25 65.62-39.35 66.75-40.45 68.35-40.45L68.35-40.45Q69.95-40.45 71.05-39.35 72.15-38.25 72.15-36.6ZM83.44-22.75L83.44-2.1Q83.44 0.3 80.69 0.3L80.69 0.3Q77.84 0.3 77.84-2.1L77.84-2.1 77.84-22.8Q77.84-26.9 80.29-28.5L80.29-28.5Q82.74-30.1 85.94-30.1L85.94-30.1 91.64-30.1Q93.49-30.1 93.49-27.75L93.49-27.75Q93.59-25.4 91.64-25.4L91.64-25.4 86.34-25.4Q84.54-25.4 83.99-24.7 83.44-24 83.44-22.75L83.44-22.75ZM111.84 0L105.29 0Q103.74 0 102.34-0.43 100.94-0.85 99.64-1.65L99.64-1.65 99.64-1.6Q97.19-3.15 97.19-7.3L97.19-7.3 97.19-9.75Q97.19-11.8 97.92-13.33 98.64-14.85 99.94-15.75L99.94-15.75 99.89-15.75Q101.14-16.6 102.54-17.03 103.94-17.45 105.24-17.45L105.24-17.45 116.29-17.45 116.29-22.1Q116.29-23.35 115.52-24.38 114.74-25.4 112.89-25.4L112.89-25.4 107.04-25.4Q105.14-25.4 104.42-24.48 103.69-23.55 103.69-22.3L103.69-22.3 103.69-21.9Q103.69-19.3 100.89-19.3L100.89-19.3Q98.09-19.3 98.09-21.9L98.09-21.9 98.09-22.35Q98.09-24.4 98.82-25.8 99.54-27.2 100.79-28.15L100.79-28.15 100.74-28.15Q102.04-29 103.47-29.55 104.89-30.1 106.19-30.1L106.19-30.1 113.79-30.1Q115.04-30.1 116.47-29.55 117.89-29 119.14-28.15L119.14-28.15 119.09-28.15Q120.39-27.2 121.09-25.68 121.79-24.15 121.79-22.15L121.79-22.15 121.79-2.1Q121.79 0.3 119.04 0.3L119.04 0.3Q118.49 0.3 118.02 0.25 117.54 0.2 117.17-0.03 116.79-0.25 116.57-0.68 116.34-1.1 116.34-1.8L116.34-1.8 116.29-12.75 106.19-12.75Q105.09-12.75 104.49-12.5 103.89-12.25 103.54-11.7L103.54-11.7Q103.14-10.85 102.97-10.38 102.79-9.9 102.79-9.3L102.79-9.3 102.79-7.35Q102.79-6.05 103.57-5.38 104.34-4.7 106.24-4.7L106.24-4.7 111.84-4.7Q113.69-4.7 113.69-2.35L113.69-2.35Q113.69-1.35 113.24-0.68 112.79 0 111.84 0L111.84 0ZM133.94-37.8L133.94-1.95Q133.94 0.4 131.19 0.4L131.19 0.4Q128.39 0.4 128.39-1.95L128.39-1.95 128.39-37.8Q128.39-40.15 131.19-40.15L131.19-40.15Q133.94-40.15 133.94-37.8L133.94-37.8Z" opacity="1" transform="matrix(1,0,0,1,0,0)" fill="white" class="wordmark-text-0" id="SvgjsPath2489"></path></svg></g></svg></g></svg></g></svg></g><g transform="matrix(1,0,0,1,412.55082432164494,0)"><svg viewBox="0 0 362.0231638327998 362.0231638327998" height="362.0231638327998" width="362.0231638327998"><g><svg xmlns="http://www.w3.org/2000/svg" xmlns:xlink="http://www.w3.org/1999/xlink" version="1.1" x="0" y="0" viewBox="0.5 0.5 47 47" enable-background="new 0 0 48 48" xml:space="preserve" height="362.0231638327998" width="362.0231638327998" class="icon-icon-0" data-fill-palette-color="accent" id="SvgjsSvg2488"></svg></g></svg></g></svg></g></svg></g></svg></g></svg></g><defs><mask></mask></defs></svg></g></mask><linearGradient x1="0.054" x2="0.941" y1="0.5" y2="0.5" id="e09fcc94-fc07-49f6-a9f8-1d6c97778632"><stop stop-color="#0f3054" offset="0"></stop><stop stop-color="#3b8dcb" offset="0.498"></stop><stop stop-color="#0f3054" offset="1"></stop></linearGradient><rect width="395.52" height="247.2" fill="url(#e09fcc94-fc07-49f6-a9f8-1d6c97778632)" mask="url(#671da09d-022a-4a5d-9b5e-fba7e24ca07e)" data-fill-palette-color="primary"></rect></svg><rect width="395.52" height="247.2" fill="none" stroke="none" visibility="hidden"></rect></g></svg></g></svg>