<svg xmlns="http://www.w3.org/2000/svg" version="1.1" xmlns:xlink="http://www.w3.org/1999/xlink" xmlns:svgjs="http://svgjs.dev/svgjs" width="2000" height="479" viewBox="0 0 2000 479"><g transform="matrix(1,0,0,1,-1.2121212121212466,0.7962476014959066)"><svg viewBox="0 0 396 95" data-background-color="#ffffff" preserveAspectRatio="xMidYMid meet" height="479" width="2000" xmlns="http://www.w3.org/2000/svg" xmlns:xlink="http://www.w3.org/1999/xlink"><g id="tight-bounds" transform="matrix(1,0,0,1,0.2400000000000091,-0.15791967044282273)"><svg viewBox="0 0 395.52 95.31583934088567" height="95.31583934088567" width="395.52"><g><svg viewBox="0 0 395.52 95.31583934088567" height="95.31583934088567" width="395.52"><g><svg viewBox="0 0 395.52 95.31583934088567" height="95.31583934088567" width="395.52"><g id="textblocktransform"><svg viewBox="0 0 395.52 95.31583934088567" height="95.31583934088567" width="395.52" id="textblock"><g><svg viewBox="0 0 395.52 95.31583934088567" height="95.31583934088567" width="395.52"><g transform="matrix(1,0,0,1,0,0)"><svg width="395.52" viewBox="0.9 -35.05 145.64 35.099999999999994" height="95.31583934088567" data-palette-color="url(#51f37b0c-92d6-4f22-8271-8069f67b3e7c)"></svg></g></svg></g></svg></g></svg></g></svg></g><defs></defs><mask id="bc11ca85-130b-4b07-88c8-73a76a6cac4b"><g id="SvgjsG1439"><svg viewBox="0 0 395.52 95.31583934088567" height="95.31583934088567" width="395.52"><g><svg viewBox="0 0 395.52 95.31583934088567" height="95.31583934088567" width="395.52"><g><svg viewBox="0 0 395.52 95.31583934088567" height="95.31583934088567" width="395.52"><g id="SvgjsG1438"><svg viewBox="0 0 395.52 95.31583934088567" height="95.31583934088567" width="395.52" id="SvgjsSvg1437"><g><svg viewBox="0 0 395.52 95.31583934088567" height="95.31583934088567" width="395.52"><g transform="matrix(1,0,0,1,0,0)"><svg width="395.52" viewBox="0.9 -35.05 145.64 35.099999999999994" height="95.31583934088567" data-palette-color="url(#51f37b0c-92d6-4f22-8271-8069f67b3e7c)"><path d="M5.85 0L5.85-1.5 24.25-1.5 13.65-30.65 2.5 0 0.9 0 13.65-35.05 26.4 0 5.85 0ZM33.15-33.5L33.15-35 53.65-35 40.9 0.05 28.15-35 29.75-35 40.9-4.35 51.5-33.5 33.15-33.5ZM60.95-35L60.95 0 59.45 0 59.45-35 60.95-35ZM74.74 0L74.74-1.5 88.54-1.5 82.49-18.1 85.29-19.7Q88.74-21.6 88.74-25.75L88.74-25.75Q88.74-33.5 76.94-33.5L76.94-33.5 72.34-33.5 72.34 0 70.84 0 70.84-35 76.94-35Q83.54-35 86.89-32.58 90.24-30.15 90.24-25.75L90.24-25.75Q90.24-20.75 86.04-18.4L86.04-18.4 84.34-17.45 90.69 0 74.74 0ZM99.24 0L99.24-1.5 117.64-1.5 107.04-30.65 95.89 0 94.29 0 107.04-35.05 119.79 0 99.24 0ZM127.14-1.5L146.54-1.5 146.54 0 125.64 0 125.64-35 127.14-35 127.14-1.5Z" opacity="1" transform="matrix(1,0,0,1,0,0)" fill="white" class="wordmark-text-0" id="SvgjsPath1436"></path></svg></g></svg></g></svg></g></svg></g></svg></g><defs><mask></mask></defs></svg></g></mask><linearGradient x1="0" x2="1" y1="0.5" y2="0.5" id="51f37b0c-92d6-4f22-8271-8069f67b3e7c"><stop stop-color="#f00b51" offset="0"></stop><stop stop-color="#730062" offset="1"></stop></linearGradient><rect width="395.52" height="95.31583934088567" fill="url(#51f37b0c-92d6-4f22-8271-8069f67b3e7c)" mask="url(#bc11ca85-130b-4b07-88c8-73a76a6cac4b)" data-fill-palette-color="primary"></rect></svg><rect width="395.52" height="95.31583934088567" fill="none" stroke="none" visibility="hidden"></rect></g></svg></g></svg>