<svg xmlns="http://www.w3.org/2000/svg" version="1.1" xmlns:xlink="http://www.w3.org/1999/xlink" xmlns:svgjs="http://svgjs.dev/svgjs" width="2000" height="1247" viewBox="0 0 2000 1247"><g transform="matrix(1,0,0,1,-1.2121212121212466,0.504858299595071)"><svg viewBox="0 0 396 247" data-background-color="#ffffff" preserveAspectRatio="xMidYMid meet" height="1247" width="2000" xmlns="http://www.w3.org/2000/svg" xmlns:xlink="http://www.w3.org/1999/xlink"><g id="tight-bounds" transform="matrix(1,0,0,1,0.2400000000000091,-0.09999999999999432)"><svg viewBox="0 0 395.52 247.2" height="247.2" width="395.52"><g><svg></svg></g><g><svg viewBox="0 0 395.52 247.2" height="247.2" width="395.52"><g mask="url(&quot;#d57f996e-2d23-427c-a7dc-8edb934c7c88&quot;)"><g><path d="M265.117 237.104l-67.307-205.592-67.001 205.592v-0.306c-1.224 3.059-2.896 5.548-5.018 7.465-2.162 1.958-4.773 2.937-7.832 2.937v0c-1.632 0-3.202-0.143-4.711-0.428-1.55-0.326-3.141-0.693-4.773-1.102v0h0.306c-11.626-3.671-15.909-10.198-12.85-19.58v0l69.755-212.017c1.02-3.263 2.815-6.017 5.385-8.26 2.529-2.244 5.527-3.569 8.994-3.977v0c3.467-0.612 6.833-1.081 10.096-1.408 3.263-0.286 5.813-0.428 7.649-0.428v0c1.836 0 4.385 0.143 7.648 0.428 3.263 0.326 6.629 0.693 10.096 1.102v0c2.855 0.408 5.67 1.938 8.444 4.589 2.733 2.651 4.813 5.303 6.241 7.954v0c11.422 35.081 23.007 70.407 34.755 105.978 11.707 35.611 23.272 70.958 34.694 106.039v0c2.855 9.382-1.428 15.909-12.85 19.58v0c-1.632 0.408-3.1 0.775-4.405 1.102-1.346 0.286-2.835 0.428-4.467 0.428v0c-2.855 0-5.446-0.979-7.771-2.937-2.366-1.917-4.059-4.406-5.078-7.465v0zM220.755 171.021v0c0 6.527-2.284 12.074-6.853 16.643-4.609 4.609-10.178 6.914-16.704 6.914v0c-6.527 0-12.034-2.305-16.521-6.914-4.487-4.569-6.731-10.116-6.731-16.643v0c0-6.527 2.244-12.095 6.731-16.705 4.487-4.569 9.994-6.853 16.521-6.853v0c6.527 0 12.095 2.284 16.704 6.853 4.569 4.609 6.853 10.178 6.853 16.705z" fill="#e21835" fill-rule="nonzero" stroke="none" stroke-width="1" stroke-linecap="butt" stroke-linejoin="miter" stroke-miterlimit="10" stroke-dasharray="" stroke-dashoffset="0" font-family="none" font-weight="none" font-size="none" text-anchor="none" style="mix-blend-mode: normal" data-fill-palette-color="tertiary"></path></g></g><g transform="matrix(1,0,0,1,0,58.111005095369066)"><svg viewBox="0 0 395.52 130.97798980926186" height="130.97798980926186" width="395.52"><g><svg viewBox="0 0 395.52 130.97798980926186" height="130.97798980926186" width="395.52"><g><svg viewBox="0 0 395.52 130.97798980926186" height="130.97798980926186" width="395.52"><g><svg viewBox="0 0 395.52 130.97798980926186" height="130.97798980926186" width="395.52"><g id="textblocktransform"><svg viewBox="0 0 395.52 130.97798980926186" height="130.97798980926186" width="395.52" id="textblock"><g><svg viewBox="0 0 395.52 130.97798980926186" height="130.97798980926186" width="395.52"><g transform="matrix(1,0,0,1,0,0)"><svg width="395.52" viewBox="-2.65625 -43.45 139.59625 46.900000000000006" height="130.97798980926186" data-palette-color="#091093"><path d="M28.15-1.2L17.15-34.8 6.2-1.2 6.2-1.25Q5.9-0.5 5.38-0.03 4.85 0.45 4.1 0.45L4.1 0.45Q3.7 0.45 3.33 0.38 2.95 0.3 2.55 0.2L2.55 0.2 2.6 0.2Q-0.25-0.7 0.5-3L0.5-3 11.9-37.65Q12.15-38.45 12.78-39 13.4-39.55 14.25-39.65L14.25-39.65Q15.1-39.8 15.9-39.88 16.7-39.95 17.15-39.95L17.15-39.95Q17.6-39.95 18.4-39.88 19.2-39.8 20.05-39.7L20.05-39.7Q20.75-39.6 21.43-38.95 22.1-38.3 22.45-37.65L22.45-37.65Q25.25-29.05 28.13-20.33 31-11.6 33.8-3L33.8-3Q34.5-0.7 31.7 0.2L31.7 0.2Q31.3 0.3 30.98 0.38 30.65 0.45 30.25 0.45L30.25 0.45Q29.55 0.45 28.98-0.03 28.4-0.5 28.15-1.25L28.15-1.25 28.15-1.2ZM20.9-12L20.9-12Q20.9-10.4 19.78-9.28 18.65-8.15 17.05-8.15L17.05-8.15Q15.45-8.15 14.35-9.28 13.25-10.4 13.25-12L13.25-12Q13.25-13.6 14.35-14.73 15.45-15.85 17.05-15.85L17.05-15.85Q18.65-15.85 19.78-14.73 20.9-13.6 20.9-12ZM48.6 0.3L48.05 0.3Q47.95 0.3 47.8 0.28 47.65 0.25 47.5 0.25L47.5 0.25Q47.25 0.25 46.8 0.25L46.8 0.25Q46.35 0.25 45.95 0.2L45.95 0.2Q45.1 0.15 44.5-0.28 43.9-0.7 43.65-1.3L43.65-1.3 35.25-27.1Q35-28.15 35.52-28.98 36.05-29.8 37.2-30.2L37.2-30.2Q37.55-30.3 37.9-30.35 38.25-30.4 38.5-30.4L38.5-30.4Q40.05-30.4 40.65-28.7L40.65-28.7 44.3-17.35 48.15-5.45 55.65-28.7Q56.2-30.45 57.65-30.45L57.65-30.45Q58.2-30.45 59.05-30.2L59.05-30.2Q60.35-29.85 60.85-29.03 61.35-28.2 61-27.1L61-27.1 52.65-1.3Q52.2 0.1 50.3 0.2L50.3 0.2Q50.2 0.2 50.07 0.23 49.95 0.25 49.85 0.25L49.85 0.25Q49.45 0.3 49.15 0.3L49.15 0.3Q48.85 0.3 48.6 0.3L48.6 0.3ZM71.1-27.9L71.1-2.1Q71.1 0.3 68.35 0.3L68.35 0.3Q65.55 0.3 65.55-2.1L65.55-2.1 65.55-27.9Q65.55-30.3 68.35-30.3L68.35-30.3Q71.1-30.3 71.1-27.9L71.1-27.9ZM72.15-36.6L72.15-36.6Q72.15-35 71.05-33.9 69.95-32.8 68.35-32.8L68.35-32.8Q66.75-32.8 65.62-33.9 64.5-35 64.5-36.6L64.5-36.6Q64.5-38.25 65.62-39.35 66.75-40.45 68.35-40.45L68.35-40.45Q69.95-40.45 71.05-39.35 72.15-38.25 72.15-36.6ZM83.44-22.75L83.44-2.1Q83.44 0.3 80.69 0.3L80.69 0.3Q77.84 0.3 77.84-2.1L77.84-2.1 77.84-22.8Q77.84-26.9 80.29-28.5L80.29-28.5Q82.74-30.1 85.94-30.1L85.94-30.1 91.64-30.1Q93.49-30.1 93.49-27.75L93.49-27.75Q93.59-25.4 91.64-25.4L91.64-25.4 86.34-25.4Q84.54-25.4 83.99-24.7 83.44-24 83.44-22.75L83.44-22.75ZM111.84 0L105.29 0Q103.74 0 102.34-0.43 100.94-0.85 99.64-1.65L99.64-1.65 99.64-1.6Q97.19-3.15 97.19-7.3L97.19-7.3 97.19-9.75Q97.19-11.8 97.92-13.33 98.64-14.85 99.94-15.75L99.94-15.75 99.89-15.75Q101.14-16.6 102.54-17.03 103.94-17.45 105.24-17.45L105.24-17.45 116.29-17.45 116.29-22.1Q116.29-23.35 115.52-24.38 114.74-25.4 112.89-25.4L112.89-25.4 107.04-25.4Q105.14-25.4 104.42-24.48 103.69-23.55 103.69-22.3L103.69-22.3 103.69-21.9Q103.69-19.3 100.89-19.3L100.89-19.3Q98.09-19.3 98.09-21.9L98.09-21.9 98.09-22.35Q98.09-24.4 98.82-25.8 99.54-27.2 100.79-28.15L100.79-28.15 100.74-28.15Q102.04-29 103.47-29.55 104.89-30.1 106.19-30.1L106.19-30.1 113.79-30.1Q115.04-30.1 116.47-29.55 117.89-29 119.14-28.15L119.14-28.15 119.09-28.15Q120.39-27.2 121.09-25.68 121.79-24.15 121.79-22.15L121.79-22.15 121.79-2.1Q121.79 0.3 119.04 0.3L119.04 0.3Q118.49 0.3 118.02 0.25 117.54 0.2 117.17-0.03 116.79-0.25 116.57-0.68 116.34-1.1 116.34-1.8L116.34-1.8 116.29-12.75 106.19-12.75Q105.09-12.75 104.49-12.5 103.89-12.25 103.54-11.7L103.54-11.7Q103.14-10.85 102.97-10.38 102.79-9.9 102.79-9.3L102.79-9.3 102.79-7.35Q102.79-6.05 103.57-5.38 104.34-4.7 106.24-4.7L106.24-4.7 111.84-4.7Q113.69-4.7 113.69-2.35L113.69-2.35Q113.69-1.35 113.24-0.68 112.79 0 111.84 0L111.84 0ZM133.94-37.8L133.94-1.95Q133.94 0.4 131.19 0.4L131.19 0.4Q128.39 0.4 128.39-1.95L128.39-1.95 128.39-37.8Q128.39-40.15 131.19-40.15L131.19-40.15Q133.94-40.15 133.94-37.8L133.94-37.8Z" opacity="1" transform="matrix(1,0,0,1,0,0)" fill="#091093" class="undefined-text-0" data-fill-palette-color="primary" id="text-0"></path></svg></g></svg></g></svg></g></svg></g></svg></g></svg></g></svg></g></svg></g><defs><mask id="d57f996e-2d23-427c-a7dc-8edb934c7c88"><rect width="395.52" height="247.2" fill="white"></rect><g transform="matrix(1,0,0,1,0,58.111005095369066)" id="clone"><svg viewBox="0 0 395.52 130.97798980926186" height="130.97798980926186" width="395.52"><g><svg viewBox="0 0 395.52 130.97798980926186" height="130.97798980926186" width="395.52"><g><svg viewBox="0 0 395.52 130.97798980926186" height="130.97798980926186" width="395.52"><g><svg viewBox="0 0 395.52 130.97798980926186" height="130.97798980926186" width="395.52"><g id="SvgjsG1041"><svg viewBox="0 0 395.52 130.97798980926186" height="130.97798980926186" width="395.52" id="SvgjsSvg1040"><g><svg viewBox="0 0 395.52 130.97798980926186" height="130.97798980926186" width="395.52"><g transform="matrix(1,0,0,1,0,0)"><svg width="395.52" viewBox="-2.65625 -43.45 139.59625 46.900000000000006" height="130.97798980926186" data-palette-color="#091093"><path d="M28.15-1.2L17.15-34.8 6.2-1.2 6.2-1.25Q5.9-0.5 5.38-0.03 4.85 0.45 4.1 0.45L4.1 0.45Q3.7 0.45 3.33 0.38 2.95 0.3 2.55 0.2L2.55 0.2 2.6 0.2Q-0.25-0.7 0.5-3L0.5-3 11.9-37.65Q12.15-38.45 12.78-39 13.4-39.55 14.25-39.65L14.25-39.65Q15.1-39.8 15.9-39.88 16.7-39.95 17.15-39.95L17.15-39.95Q17.6-39.95 18.4-39.88 19.2-39.8 20.05-39.7L20.05-39.7Q20.75-39.6 21.43-38.95 22.1-38.3 22.45-37.65L22.45-37.65Q25.25-29.05 28.13-20.33 31-11.6 33.8-3L33.8-3Q34.5-0.7 31.7 0.2L31.7 0.2Q31.3 0.3 30.98 0.38 30.65 0.45 30.25 0.45L30.25 0.45Q29.55 0.45 28.98-0.03 28.4-0.5 28.15-1.25L28.15-1.25 28.15-1.2ZM20.9-12L20.9-12Q20.9-10.4 19.78-9.28 18.65-8.15 17.05-8.15L17.05-8.15Q15.45-8.15 14.35-9.28 13.25-10.4 13.25-12L13.25-12Q13.25-13.6 14.35-14.73 15.45-15.85 17.05-15.85L17.05-15.85Q18.65-15.85 19.78-14.73 20.9-13.6 20.9-12ZM48.6 0.3L48.05 0.3Q47.95 0.3 47.8 0.28 47.65 0.25 47.5 0.25L47.5 0.25Q47.25 0.25 46.8 0.25L46.8 0.25Q46.35 0.25 45.95 0.2L45.95 0.2Q45.1 0.15 44.5-0.28 43.9-0.7 43.65-1.3L43.65-1.3 35.25-27.1Q35-28.15 35.52-28.98 36.05-29.8 37.2-30.2L37.2-30.2Q37.55-30.3 37.9-30.35 38.25-30.4 38.5-30.4L38.5-30.4Q40.05-30.4 40.65-28.7L40.65-28.7 44.3-17.35 48.15-5.45 55.65-28.7Q56.2-30.45 57.65-30.45L57.65-30.45Q58.2-30.45 59.05-30.2L59.05-30.2Q60.35-29.85 60.85-29.03 61.35-28.2 61-27.1L61-27.1 52.65-1.3Q52.2 0.1 50.3 0.2L50.3 0.2Q50.2 0.2 50.07 0.23 49.95 0.25 49.85 0.25L49.85 0.25Q49.45 0.3 49.15 0.3L49.15 0.3Q48.85 0.3 48.6 0.3L48.6 0.3ZM71.1-27.9L71.1-2.1Q71.1 0.3 68.35 0.3L68.35 0.3Q65.55 0.3 65.55-2.1L65.55-2.1 65.55-27.9Q65.55-30.3 68.35-30.3L68.35-30.3Q71.1-30.3 71.1-27.9L71.1-27.9ZM72.15-36.6L72.15-36.6Q72.15-35 71.05-33.9 69.95-32.8 68.35-32.8L68.35-32.8Q66.75-32.8 65.62-33.9 64.5-35 64.5-36.6L64.5-36.6Q64.5-38.25 65.62-39.35 66.75-40.45 68.35-40.45L68.35-40.45Q69.95-40.45 71.05-39.35 72.15-38.25 72.15-36.6ZM83.44-22.75L83.44-2.1Q83.44 0.3 80.69 0.3L80.69 0.3Q77.84 0.3 77.84-2.1L77.84-2.1 77.84-22.8Q77.84-26.9 80.29-28.5L80.29-28.5Q82.74-30.1 85.94-30.1L85.94-30.1 91.64-30.1Q93.49-30.1 93.49-27.75L93.49-27.75Q93.59-25.4 91.64-25.4L91.64-25.4 86.34-25.4Q84.54-25.4 83.99-24.7 83.44-24 83.44-22.75L83.44-22.75ZM111.84 0L105.29 0Q103.74 0 102.34-0.43 100.94-0.85 99.64-1.65L99.64-1.65 99.64-1.6Q97.19-3.15 97.19-7.3L97.19-7.3 97.19-9.75Q97.19-11.8 97.92-13.33 98.64-14.85 99.94-15.75L99.94-15.75 99.89-15.75Q101.14-16.6 102.54-17.03 103.94-17.45 105.24-17.45L105.24-17.45 116.29-17.45 116.29-22.1Q116.29-23.35 115.52-24.38 114.74-25.4 112.89-25.4L112.89-25.4 107.04-25.4Q105.14-25.4 104.42-24.48 103.69-23.55 103.69-22.3L103.69-22.3 103.69-21.9Q103.69-19.3 100.89-19.3L100.89-19.3Q98.09-19.3 98.09-21.9L98.09-21.9 98.09-22.35Q98.09-24.4 98.82-25.8 99.54-27.2 100.79-28.15L100.79-28.15 100.74-28.15Q102.04-29 103.47-29.55 104.89-30.1 106.19-30.1L106.19-30.1 113.79-30.1Q115.04-30.1 116.47-29.55 117.89-29 119.14-28.15L119.14-28.15 119.09-28.15Q120.39-27.2 121.09-25.68 121.79-24.15 121.79-22.15L121.79-22.15 121.79-2.1Q121.79 0.3 119.04 0.3L119.04 0.3Q118.49 0.3 118.02 0.25 117.54 0.2 117.17-0.03 116.79-0.25 116.57-0.68 116.34-1.1 116.34-1.8L116.34-1.8 116.29-12.75 106.19-12.75Q105.09-12.75 104.49-12.5 103.89-12.25 103.54-11.7L103.54-11.7Q103.14-10.85 102.97-10.38 102.79-9.9 102.79-9.3L102.79-9.3 102.79-7.35Q102.79-6.05 103.57-5.38 104.34-4.7 106.24-4.7L106.24-4.7 111.84-4.7Q113.69-4.7 113.69-2.35L113.69-2.35Q113.69-1.35 113.24-0.68 112.79 0 111.84 0L111.84 0ZM133.94-37.8L133.94-1.95Q133.94 0.4 131.19 0.4L131.19 0.4Q128.39 0.4 128.39-1.95L128.39-1.95 128.39-37.8Q128.39-40.15 131.19-40.15L131.19-40.15Q133.94-40.15 133.94-37.8L133.94-37.8Z" opacity="1" transform="matrix(1,0,0,1,0,0)" fill="#091093" class="undefined-text-0" data-fill-palette-color="primary" id="SvgjsPath1039" stroke-width="5" stroke="black" stroke-linejoin="round"></path></svg></g></svg></g></svg></g></svg></g></svg></g></svg></g></svg></g></mask></defs></svg><rect width="395.52" height="247.2" fill="none" stroke="none" visibility="hidden"></rect></g></svg></g></svg>