{
  "accessors": [
    {
      "bufferView": 2,
      "componentType": 5126,
      "count": 2857,
      "max": [
        1.2833142280578613,
        5.576923370361328,
        3.225684642791748
      ],
      "min": [
        -1.2748122215270996,
        0.0,
        -3.2743330001831055
      ],
      "type": "VEC3"
    },
    {
      "bufferView": 2,
      "byteOffset": 34284,
      "componentType": 5126,
      "count": 2857,
      "max": [
        1.0,
        1.0,
        0.999859631061554
      ],
      "min": [
        -1.0,
        -1.0,
        -0.9999584555625916
      ],
      "type": "VEC3"
    },
    {
      "bufferView": 3,
      "componentType": 5126,
      "count": 2857,
      "max": [
        1.0,
        0.9999580383300781,
        1.0,
        1.0
      ],
      "min": [
        -1.0,
        -0.9999738335609436,
        -1.0,
        -1.0
      ],
      "type": "VEC4"
    },
    {
      "bufferView": 1,
      "componentType": 5126,
      "count": 2857,
      "max": [
        0.9931640625,
        0.9925488233566284
      ],
      "min": [
        0.0068359375,
        0.0068359375
      ],
      "type": "VEC2"
    },
    {
      "bufferView": 0,
      "componentType": 5125,
      "count": 5322,
      "type": "SCALAR"
    }
  ],
  "asset": {
    "extras": {
      "author": "sujirour (https://sketchfab.com/sujirour)",
      "license": "CC-BY-4.0 (http://creativecommons.org/licenses/by/4.0/)",
      "source": "https://sketchfab.com/3d-models/gaming-pc-a8306500434f4ed2839130b8a99e57b3",
      "title": "Gaming PC"
    },
    "generator": "Sketchfab-14.20.0",
    "version": "2.0"
  },
  "bufferViews": [
    {
      "buffer": 0,
      "byteLength": 21288,
      "name": "floatBufferViews",
      "target": 34963
    },
    {
      "buffer": 0,
      "byteLength": 22856,
      "byteOffset": 21288,
      "byteStride": 8,
      "name": "floatBufferViews",
      "target": 34962
    },
    {
      "buffer": 0,
      "byteLength": 68568,
      "byteOffset": 44144,
      "byteStride": 12,
      "name": "floatBufferViews",
      "target": 34962
    },
    {
      "buffer": 0,
      "byteLength": 45712,
      "byteOffset": 112712,
      "byteStride": 16,
      "name": "floatBufferViews",
      "target": 34962
    }
  ],
  "buffers": [
    {
      "byteLength": 158424,
      "uri": "scene.bin"
    }
  ],
  "images": [
    {
      "uri": "textures/pc_case_mat_baseColor.png"
    },
    {
      "uri": "textures/pc_case_mat_metallicRoughness.png"
    },
    {
      "uri": "textures/pc_case_mat_normal.png"
    }
  ],
  "materials": [
    {
      "name": "pc_case_mat",
      "normalTexture": {
        "index": 2
      },
      "pbrMetallicRoughness": {
        "baseColorTexture": {
          "index": 0
        },
        "metallicRoughnessTexture": {
          "index": 1
        }
      }
    }
  ],
  "meshes": [
    {
      "name": "pc_case_pc_case_mat_0",
      "primitives": [
        {
          "attributes": {
            "NORMAL": 1,
            "POSITION": 0,
            "TANGENT": 2,
            "TEXCOORD_0": 3
          },
          "indices": 4,
          "material": 0,
          "mode": 4
        }
      ]
    }
  ],
  "nodes": [
    {
      "children": [
        1
      ],
      "matrix": [
        1.0,
        0.0,
        0.0,
        0.0,
        0.0,
        2.220446049250313e-16,
        -1.0,
        0.0,
        0.0,
        1.0,
        2.220446049250313e-16,
        0.0,
        0.0,
        0.0,
        0.0,
        1.0
      ],
      "name": "Sketchfab_model"
    },
    {
      "children": [
        2
      ],
      "matrix": [
        1.0,
        0.0,
        0.0,
        0.0,
        0.0,
        0.0,
        1.0,
        0.0,
        0.0,
        -1.0,
        0.0,
        0.0,
        0.0,
        0.0,
        0.0,
        1.0
      ],
      "name": "pc case.fbx"
    },
    {
      "children": [
        3
      ],
      "name": "RootNode"
    },
    {
      "children": [
        4
      ],
      "name": "pc_case"
    },
    {
      "mesh": 0,
      "name": "pc_case_pc_case_mat_0"
    }
  ],
  "samplers": [
    {
      "magFilter": 9729,
      "minFilter": 9987,
      "wrapS": 10497,
      "wrapT": 10497
    }
  ],
  "scene": 0,
  "scenes": [
    {
      "name": "Sketchfab_Scene",
      "nodes": [
        0
      ]
    }
  ],
  "textures": [
    {
      "sampler": 0,
      "source": 0
    },
    {
      "sampler": 0,
      "source": 1
    },
    {
      "sampler": 0,
      "source": 2
    }
  ]
}
