<svg xmlns="http://www.w3.org/2000/svg" version="1.1" xmlns:xlink="http://www.w3.org/1999/xlink" xmlns:svgjs="http://svgjs.dev/svgjs" width="128" height="128" viewBox="0 0 128 128"><g transform="matrix(0.8046875,0,0,0.8046875,12.333870967741937,12.333870967741937)"><svg viewBox="0 0 155 155" data-background-color="#ffffff" preserveAspectRatio="xMidYMid meet" height="128" width="128" xmlns="http://www.w3.org/2000/svg" xmlns:xlink="http://www.w3.org/1999/xlink"><g id="tight-bounds" transform="matrix(1,0,0,1,0.25,0.25)"><svg viewBox="0 0 154.5 154.5" height="154.5" width="154.5"><g><svg></svg></g><g><svg viewBox="0 0 154.5 154.5" height="154.5" width="154.5"><g transform="matrix(1,0,0,1,48.839801956222466,43.83165)"><svg viewBox="0 0 56.82039608755507 66.8367" height="66.8367" width="56.82039608755507"><g><svg viewBox="0 0 56.82039608755507 66.8367" height="66.8367" width="56.82039608755507"><g><svg viewBox="0 0 56.82039608755507 66.8367" height="66.8367" width="56.82039608755507"><g id="textblocktransform"><svg viewBox="0 0 56.82039608755507 66.8367" height="66.8367" width="56.82039608755507" id="textblock"><g><svg viewBox="0 0 56.82039608755507 66.8367" height="66.8367" width="56.82039608755507"><g transform="matrix(1,0,0,1,0,0)"><svg width="56.82039608755507" viewBox="-2.65625 -42.95 39.596141802400005 46.400000000000006" height="66.8367" data-palette-color="#091093"><path d="M28.15-1.2L17.15-34.8 6.2-1.2 6.2-1.25Q5.9-0.5 5.38-0.03 4.85 0.45 4.1 0.45L4.1 0.45Q3.7 0.45 3.33 0.38 2.95 0.3 2.55 0.2L2.55 0.2 2.6 0.2Q-0.25-0.7 0.5-3L0.5-3 11.9-37.65Q12.15-38.45 12.78-39 13.4-39.55 14.25-39.65L14.25-39.65Q15.1-39.8 15.9-39.88 16.7-39.95 17.15-39.95L17.15-39.95Q17.6-39.95 18.4-39.88 19.2-39.8 20.05-39.7L20.05-39.7Q20.75-39.6 21.43-38.95 22.1-38.3 22.45-37.65L22.45-37.65Q25.25-29.05 28.13-20.33 31-11.6 33.8-3L33.8-3Q34.5-0.7 31.7 0.2L31.7 0.2Q31.3 0.3 30.98 0.38 30.65 0.45 30.25 0.45L30.25 0.45Q29.55 0.45 28.98-0.03 28.4-0.5 28.15-1.25L28.15-1.25 28.15-1.2ZM20.9-12L20.9-12Q20.9-10.4 19.78-9.28 18.65-8.15 17.05-8.15L17.05-8.15Q15.45-8.15 14.35-9.28 13.25-10.4 13.25-12L13.25-12Q13.25-13.6 14.35-14.73 15.45-15.85 17.05-15.85L17.05-15.85Q18.65-15.85 19.78-14.73 20.9-13.6 20.9-12Z" opacity="1" transform="matrix(1,0,0,1,0,0)" fill="#000000" class="undefined-text-0" data-fill-palette-color="primary" id="text-0"></path></svg></g></svg></g></svg></g></svg></g></svg></g></svg></g><g><path d="M0 154.5v-154.5h154.5v154.5zM149.136 149.136v-143.772h-143.772v143.772z" fill="#000000" fill-rule="nonzero" stroke="none" stroke-width="1" stroke-linecap="butt" stroke-linejoin="miter" stroke-miterlimit="10" stroke-dasharray="" stroke-dashoffset="0" font-family="none" font-weight="none" font-size="none" text-anchor="none" style="mix-blend-mode: normal" data-fill-palette-color="tertiary"></path></g></svg></g><defs><mask><rect width="154.5" height="154.5" fill="white"></rect><g transform="matrix(1,0,0,1,48.839801956222466,43.83165)" id="clone"><svg viewBox="0 0 56.82039608755507 66.8367" height="66.8367" width="56.82039608755507"><g><svg viewBox="0 0 56.82039608755507 66.8367" height="66.8367" width="56.82039608755507"><g><svg viewBox="0 0 56.82039608755507 66.8367" height="66.8367" width="56.82039608755507"><g id="SvgjsG1028"><svg viewBox="0 0 56.82039608755507 66.8367" height="66.8367" width="56.82039608755507" id="SvgjsSvg1027"><g><svg viewBox="0 0 56.82039608755507 66.8367" height="66.8367" width="56.82039608755507"><g transform="matrix(1,0,0,1,0,0)"><svg width="56.82039608755507" viewBox="-2.65625 -42.95 39.596141802400005 46.400000000000006" height="66.8367" data-palette-color="#091093"><path d="M28.15-1.2L17.15-34.8 6.2-1.2 6.2-1.25Q5.9-0.5 5.38-0.03 4.85 0.45 4.1 0.45L4.1 0.45Q3.7 0.45 3.33 0.38 2.95 0.3 2.55 0.2L2.55 0.2 2.6 0.2Q-0.25-0.7 0.5-3L0.5-3 11.9-37.65Q12.15-38.45 12.78-39 13.4-39.55 14.25-39.65L14.25-39.65Q15.1-39.8 15.9-39.88 16.7-39.95 17.15-39.95L17.15-39.95Q17.6-39.95 18.4-39.88 19.2-39.8 20.05-39.7L20.05-39.7Q20.75-39.6 21.43-38.95 22.1-38.3 22.45-37.65L22.45-37.65Q25.25-29.05 28.13-20.33 31-11.6 33.8-3L33.8-3Q34.5-0.7 31.7 0.2L31.7 0.2Q31.3 0.3 30.98 0.38 30.65 0.45 30.25 0.45L30.25 0.45Q29.55 0.45 28.98-0.03 28.4-0.5 28.15-1.25L28.15-1.25 28.15-1.2ZM20.9-12L20.9-12Q20.9-10.4 19.78-9.28 18.65-8.15 17.05-8.15L17.05-8.15Q15.45-8.15 14.35-9.28 13.25-10.4 13.25-12L13.25-12Q13.25-13.6 14.35-14.73 15.45-15.85 17.05-15.85L17.05-15.85Q18.65-15.85 19.78-14.73 20.9-13.6 20.9-12Z" opacity="1" transform="matrix(1,0,0,1,0,0)" fill="#000000" class="undefined-text-0" data-fill-palette-color="primary" id="SvgjsPath1026" stroke-width="5" stroke="black" stroke-linejoin="round"></path></svg></g></svg></g></svg></g></svg></g></svg></g></svg></g></mask></defs></svg><rect width="154.5" height="154.5" fill="none" stroke="none" visibility="hidden"></rect></g></svg></g></svg>