<svg xmlns="http://www.w3.org/2000/svg" version="1.1" xmlns:xlink="http://www.w3.org/1999/xlink" xmlns:svgjs="http://svgjs.dev/svgjs" width="128" height="128" viewBox="0 0 128 128"><g transform="matrix(0.5819209039548022,0,0,0.5819209039548022,26.89130597474609,12.333870967741937)"><svg viewBox="0 0 112 155" data-background-color="#ffffff" preserveAspectRatio="xMidYMid meet" height="177" width="128" xmlns="http://www.w3.org/2000/svg" xmlns:xlink="http://www.w3.org/1999/xlink"><g id="tight-bounds" transform="matrix(1,0,0,1,-0.2018544935805835,0.25)"><svg viewBox="0 0 112.40370898716118 154.5" height="154.5" width="112.40370898716118"><g><svg viewBox="0 0 112.40370898716118 154.5" height="154.5" width="112.40370898716118"><g><svg viewBox="0 0 112.40370898716118 154.5" height="154.5" width="112.40370898716118"><g id="textblocktransform"><svg viewBox="0 0 112.40370898716118 154.5" height="154.5" width="112.40370898716118" id="textblock"><g><svg viewBox="0 0 112.40370898716118 154.5" height="154.5" width="112.40370898716118"><g transform="matrix(1,0,0,1,0,0)"><svg width="112.40370898716118" viewBox="0.9 -35.05 25.5 35.05" height="154.5" data-palette-color="url(#92124bf6-dce6-4140-a6fc-9c44362ea070)"></svg></g></svg></g></svg></g></svg></g></svg></g><defs></defs><mask id="ee1f5c93-7b39-4a29-89c2-0e22d444fdcf"><g id="SvgjsG3223"><svg viewBox="0 0 112.40370898716118 154.5" height="154.5" width="112.40370898716118"><g><svg viewBox="0 0 112.40370898716118 154.5" height="154.5" width="112.40370898716118"><g><svg viewBox="0 0 112.40370898716118 154.5" height="154.5" width="112.40370898716118"><g id="SvgjsG3222"><svg viewBox="0 0 112.40370898716118 154.5" height="154.5" width="112.40370898716118" id="SvgjsSvg3221"><g><svg viewBox="0 0 112.40370898716118 154.5" height="154.5" width="112.40370898716118"><g transform="matrix(1,0,0,1,0,0)"><svg width="112.40370898716118" viewBox="0.9 -35.05 25.5 35.05" height="154.5" data-palette-color="url(#92124bf6-dce6-4140-a6fc-9c44362ea070)"><path d="M5.85 0L5.85-1.5 24.25-1.5 13.65-30.65 2.5 0 0.9 0 13.65-35.05 26.4 0 5.85 0Z" opacity="1" transform="matrix(1,0,0,1,0,0)" fill="white" class="wordmark-text-0" id="SvgjsPath3220"></path></svg></g></svg></g></svg></g></svg></g></svg></g><defs><mask></mask></defs></svg></g></mask><linearGradient x1="0" x2="1" y1="0.5" y2="0.5" id="92124bf6-dce6-4140-a6fc-9c44362ea070"><stop stop-color="#f00b51" offset="0"></stop><stop stop-color="#730062" offset="1"></stop></linearGradient><rect width="112.40370898716118" height="154.5" fill="url(#92124bf6-dce6-4140-a6fc-9c44362ea070)" mask="url(#ee1f5c93-7b39-4a29-89c2-0e22d444fdcf)" data-fill-palette-color="primary"></rect></svg><rect width="112.40370898716118" height="154.5" fill="none" stroke="none" visibility="hidden"></rect></g></svg></g></svg>